<svg xmlns="http://www.w3.org/2000/svg" width="1204" height="1192" viewBox="0 0 903 894"><path fill="#dfe3eb" d="M192.5 56.6c-17.8 2.8-30.1 11-57 38.4-7.7 7.9-23.2 23.1-34.4 33.9s-22.3 22.4-24.7 25.8c-17.6 24.5-18 52.3-1.1 77.8 2.4 3.5 22.5 24.6 49.2 51.5 24.9 25 46.5 47 48.1 48.7 4.7 5.3 18.3 15 27.1 19.4 21.9 10.8 42.5 11.6 68.3 2.9 20-6.8 31.5-8.2 42-4.8 7.4 2.3 24.4 10 28.9 13 9 6.2 57.7 54.6 62.9 62.7 4.2 6.6 13.3 16.1 15.3 16.1.8 0 7.6-5.9 15.2-13.1 10-9.5 13.7-13.7 13.7-15.4 0-3.2-8-11.2-15.3-15.4-4-2.3-13.1-10.7-31.2-29-26.9-27.1-33.5-34.8-35.5-41.5-.7-2.2-3.1-7.7-5.4-12.1l-4.1-8 .1-13c0-12.1.3-13.7 3.6-23.5 7.1-21.1 7.2-21.4 7.2-38 .1-13.4-.2-16.6-2.3-23.5-3.1-10.8-9.1-22.7-16-31.8-4.9-6.4-59.5-63.2-91.3-94.9-14-13.9-24.7-20.9-37.3-24.3-6.1-1.7-20.6-2.7-26-1.9M691.5 57.6c-1.1.3-4.7 1.2-7.9 2-12.2 3-23.3 10.2-37.4 24.2-31.8 31.7-86.4 88.5-91.3 94.9-6.9 9.1-12.9 21-16 31.8-2.1 6.9-2.4 10.1-2.3 23.5 0 16.6.1 16.9 7.2 38 3.3 9.8 3.6 11.4 3.6 23.5l.1 13-4.1 8c-2.3 4.4-4.7 9.9-5.4 12.1-2 6.7-8.6 14.4-35.5 41.5-18.1 18.3-27.2 26.7-31.2 29-7.3 4.2-15.3 12.2-15.3 15.4 0 1.7 3.7 5.9 13.7 15.4 7.6 7.2 14.4 13.1 15.2 13.1 2 0 11.1-9.5 15.3-16.1 5.2-8.1 53.9-56.5 62.9-62.7 4.5-3 21.5-10.7 28.9-13 10.5-3.4 22-2 42 4.8 25.8 8.7 46.4 7.9 68.3-2.9 8.8-4.4 22.4-14.1 27.1-19.4 1.6-1.7 23.2-23.7 48.1-48.7 26.7-26.9 46.8-48 49.2-51.5 16.9-25.5 16.5-53.3-1.1-77.8-2.4-3.4-13.5-15-24.7-25.8s-26.7-26-34.4-33.9c-30-30.5-41.6-37.5-63.5-38.5-5.2-.2-10.4-.2-11.5.1M496.5 81.6c-10.7 2.1-13.9 3.1-20 5.7-21.1 9.2-42.7 30.1-54.2 52.2-7.6 14.7-13.5 34.5-14.8 49.7-.8 8.3 0 15.1 1.6 14.6.6-.2 3.8-6.9 7.2-14.8 10.8-25.2 24.7-47.8 40.4-65.6 7.5-8.6 25.7-24.3 35.3-30.4 12.2-7.9 15-9.9 15-11 0-1-6.3-1.2-10.5-.4M96.6 364.1c-1.3 4.3-1.4 6.9-.1 13.4 2 10.4 6 21.8 11.1 31.3 17.8 33.7 59.8 58.6 102.4 60.8 8.5.5 10.9.3 12.5-.9l2-1.6-2-.6c-1.1-.4-8.7-3.4-16.9-6.7-26-10.4-37.7-16.9-55-30.8-20.3-16.3-34.5-33.1-46.6-55-5.9-10.8-6.8-11.9-7.4-9.9M697 403.8c-5.8.6-5.5 1.8 1.2 4.8 15.5 6.9 34 17 42.3 22.9 11.9 8.5 28 23.7 37 34.9 7 8.7 21.9 31.5 26.4 40.3 2.7 5.3 3.9 6 4.7 2.7 1.8-7.1-2.6-25.5-9.4-39.8-12.4-25.7-36.6-48.2-63-58.5-11.8-4.7-30.4-8.1-39.2-7.3M410.4 459.3c-2.8 3-6.7 7.8-8.6 10.8-5.2 8.1-53.9 56.5-62.9 62.7-4.5 3-21.5 10.7-28.9 13-10.5 3.4-22 2-42-4.8-25.8-8.7-46.4-7.9-68.3 2.9-8.8 4.4-22.4 14.1-27.1 19.4-1.6 1.7-23.2 23.7-48.1 48.7-26.7 26.9-46.8 48-49.2 51.5-16.9 25.5-16.5 53.3 1.1 77.8 2.4 3.4 13.5 15 24.7 25.8s26.7 26 34.4 33.9c30.8 31.3 42.7 38.3 65.5 38.4 21.1.2 35-6.5 54.8-26.2 31.8-31.7 86.4-88.5 91.3-94.9 6.9-9.1 12.9-21 16-31.8 2.1-6.9 2.4-10.1 2.3-23.5 0-16.6-.1-16.9-7.2-38-3.3-9.8-3.6-11.4-3.6-23.5l-.1-13 4.1-8c2.3-4.4 4.7-9.9 5.4-12.1 2-6.7 8.6-14.4 35.5-41.5 18.1-18.3 27.2-26.7 31.2-29 7.3-4.2 15.3-12.2 15.3-15.4 0-1.7-3.7-5.9-13.7-15.4-7.6-7.2-14.4-13.1-15.2-13.1s-3.8 2.4-6.7 5.3M471.7 468.1c-10 9.5-13.7 13.7-13.7 15.4 0 3.2 8 11.2 15.3 15.4 4 2.3 13.1 10.7 31.2 29 26.9 27.1 33.5 34.8 35.5 41.5.7 2.2 3.1 7.7 5.4 12.1l4.1 8-.1 13c0 12.1-.3 13.7-3.6 23.5-7.1 21.1-7.2 21.4-7.2 38-.1 13.4.2 16.6 2.3 23.5 3.1 10.8 9.1 22.7 16 31.8 4.9 6.4 59.5 63.2 91.3 94.9 19.8 19.7 33.7 26.4 54.8 26.2 22.8-.1 34.7-7.1 65.5-38.4 7.7-7.9 23.2-23.1 34.4-33.9s22.3-22.4 24.7-25.8c17.6-24.5 18-52.3 1.1-77.8-2.4-3.5-22.5-24.6-49.2-51.5-24.9-25-46.5-47-48.1-48.7-4.7-5.3-18.3-15-27.1-19.4-21.9-10.8-42.5-11.6-68.3-2.9-20 6.8-31.5 8.2-42 4.8-7.4-2.3-24.4-10-28.9-13-9-6.2-57.7-54.6-62.9-62.7-4.2-6.6-13.3-16.1-15.3-16.1-.8 0-7.6 5.9-15.2 13.1M479.7 627.7c-.3.4-1.5 4.8-2.6 9.8-6.1 25.8-23.7 65.8-37.4 85.1-7 9.9-18.3 23.1-27.2 31.8-6.9 6.7-24.5 21-32.3 26.3-2.9 1.9-5.1 4-4.9 4.6.7 2.3 4.7 1.8 15.4-1.8 21.8-7.3 38.9-19.3 54.6-38.4 11.5-13.9 21.9-32.2 27.5-48.2 6.5-18.6 11-46.5 9.8-60.9-.6-7-1.7-10.2-2.9-8.3"/></svg>