<svg xmlns="http://www.w3.org/2000/svg" width="800" height="800" viewBox="0 0 800 800"><path fill="#dfe3eb" d="M574.597 604.35c-2.084-.264-10.216-1.783-15.462-2.887-8.454-1.78-23.708-8.377-29.147-12.607-1.512-1.175-2.993-2.137-3.292-2.137-1.931 0-21.49-20.098-21.49-22.083 0-.355-.815-1.725-1.812-3.046-.996-1.32-2.643-3.928-3.66-5.795a14139 14139 0 0 1-5.533-10.182 1420 1420 0 0 0-4.826-8.832c-1.782-3.194-8.982-11.222-13.7-15.276-4.22-3.626-8.69-5.76-17.61-8.41-2.489-.738-6.667-2.307-9.285-3.486-7.921-3.566-10.297-3.756-45.398-3.63-35.074.125-48.526.782-56.021 2.736-2.583.674-5.545 1.363-6.582 1.533s-2.697.492-3.689.718c-3.463.788-10.061-.531-11.911-2.382-1.737-1.737-1.748-1.86-1.748-21.332v-19.584l2.075-.407c6.446-1.264 10.873-1.267 17.926-.013 9.05 1.61 37.109 1.805 61.081.425 8.297-.478 18.989-1.04 23.76-1.251 12.063-.532 12.894-.711 23.381-5.056 21.222-8.792 29.71-15.232 36.866-27.972l2.255-4.021c1.084-1.937 6.888-14.626 6.888-15.058 0-.19 1.358-2.581 3.017-5.312 1.66-2.732 3.017-5.105 3.017-5.274s1.826-2.765 4.057-5.768c11.012-14.824 27.214-25.731 45.724-30.782 11.033-3.01 17.444-3.783 34.318-4.134 9.542-.2 23.373-.5 30.736-.667l13.388-.305V483.07c0 66.548-.085 121.013-.189 121.032-1.398.257-55.221.49-57.134.248m70.9-121.365V361.953l5.09-.008c2.8-.004 19.347-.215 36.77-.469 33.936-.494 38.684-.2 48.78 3.01 10.571 3.362 22.788 11.021 29.263 18.346 5.707 6.456 11.44 16.227 13.858 23.62 3.82 11.68 3.98 14.113 4.711 71.278.255 19.912.568 41.464.697 47.894.508 25.424-4.426 40.962-17.485 55.067-3.914 4.227-12.309 11.307-13.407 11.307-.247 0-1.716.788-3.263 1.751-3.153 1.962-11.769 5.51-15.017 6.185-13.866 2.878-18.087 3.127-63.033 3.724l-26.964.358zm79.407 86.829c7.13-1.572 12.11-4.452 18.364-10.623 4.171-4.115 6.067-6.745 8.46-11.734 5.908-12.32 5.802-11.14 5.561-62.184-.12-25.29-.553-47.751-.984-50.912-3.106-22.782-15.335-37.97-33.744-41.91-3.974-.85-9.242-.985-25.021-.641-10.993.24-20.412.567-20.93.728-.748.231-.943 18.853-.943 89.807v89.515l22.061-.46c15.253-.317 23.64-.806 27.176-1.586M268.371 442.94c-2.083-.264-10.216-1.782-15.462-2.887-8.454-1.78-23.708-8.377-29.147-12.606-1.512-1.176-2.993-2.137-3.292-2.137-1.931 0-21.49-20.1-21.49-22.084 0-.354-.815-1.725-1.812-3.046-.996-1.32-2.643-3.928-3.659-5.795s-3.506-6.449-5.534-10.182a1421 1421 0 0 0-4.826-8.832c-1.782-3.194-8.981-11.222-13.7-15.276-4.22-3.625-8.689-5.76-17.61-8.409-2.489-.74-6.667-2.308-9.285-3.486-7.921-3.566-10.297-3.756-45.398-3.63-35.074.125-48.526.782-56.021 2.736-2.583.673-5.544 1.363-6.582 1.532-1.037.17-2.697.493-3.688.718-3.463.788-10.062-.531-11.912-2.381-1.737-1.737-1.747-1.861-1.747-21.332v-19.585l2.074-.407c6.446-1.264 10.873-1.267 17.926-.012 9.05 1.61 37.109 1.804 61.082.424 8.296-.478 18.988-1.04 23.759-1.25 12.063-.533 12.894-.712 23.381-5.057 21.222-8.791 29.71-15.232 36.866-27.971.803-1.43 1.818-3.24 2.255-4.022 1.084-1.937 6.889-14.626 6.889-15.058 0-.19 1.357-2.58 3.017-5.312 1.659-2.731 3.017-5.105 3.017-5.274s1.825-2.764 4.056-5.768c11.012-14.824 27.214-25.73 45.724-30.782 11.033-3.01 17.444-3.782 34.319-4.134 9.54-.199 23.372-.499 30.735-.667l13.388-.305V321.66c0 66.549-.085 121.013-.188 121.032-1.398.257-55.222.49-57.135.248m70.9-121.365V200.543l12.633-.035c6.949-.02 16.028-.192 20.177-.382 39.138-1.801 53.513-.3 67.882 7.086 19.064 9.8 30.584 25.041 35.436 46.883 1.463 6.588 1.72 13.415 2.345 62.225.254 19.913.567 41.465.696 47.895.508 25.424-4.425 40.961-17.484 55.067-3.914 4.227-12.31 11.307-13.408 11.307-.247 0-1.715.788-3.263 1.751-3.153 1.962-11.768 5.51-15.017 6.185-13.866 2.878-18.087 3.127-63.033 3.724l-26.964.358zm79.408 86.83c7.13-1.573 12.108-4.453 18.363-10.624 4.171-4.114 6.067-6.745 8.46-11.733 5.908-12.32 5.802-11.14 5.561-62.185-.119-25.29-.553-47.75-.984-50.912-3.106-22.782-15.335-37.97-33.744-41.91-3.973-.85-9.242-.985-25.021-.64-10.993.24-20.412.567-20.93.727-.748.231-.943 18.853-.943 89.807v89.515l22.062-.459c15.252-.317 23.64-.807 27.176-1.587"/></svg>