<svg xmlns="http://www.w3.org/2000/svg" xml:space="preserve" width="1204" height="1192" viewBox="0 0 903 894"><path fill="#dfe3eb" d="M197.982 56.32c-2.214-.008-4.132.08-5.482.28-17.8 2.8-30.1 11-57 38.4-7.7 7.9-23.2 23.1-34.4 33.9s-22.3 22.4-24.7 25.8c-17.6 24.5-18 52.3-1.1 77.8 2.4 3.5 22.5 24.6 49.2 51.5 24.9 25 46.5 47 48.1 48.7 4.7 5.3 18.3 15 27.1 19.4 21.9 10.8 42.5 11.6 68.3 2.9 20-6.8 31.5-8.2 42-4.8 7.4 2.3 24.4 10 28.9 13 9 6.2 57.7 54.6 62.9 62.7 4.2 6.6 13.3 16.1 15.3 16.1.8 0 7.6-5.9 15.2-13.1 10-9.5 13.7-13.7 13.7-15.4 0-3.2-8-11.2-15.3-15.4-4-2.3-13.1-10.7-31.2-29-26.9-27.1-33.5-34.8-35.5-41.5-.7-2.2-3.1-7.7-5.4-12.1l-4.1-8 .1-13c0-12.1.3-13.7 3.6-23.5 7.1-21.1 7.2-21.4 7.2-38 .1-13.4-.2-16.6-2.3-23.5-3.1-10.8-9.1-22.7-16-31.8-4.9-6.4-59.5-63.2-91.3-94.9-14-13.9-24.7-20.9-37.3-24.3-4.575-1.275-13.875-2.156-20.518-2.18M703 57.5c-5.2-.2-10.4-.2-11.5.1s-4.7 1.2-7.9 2c-12.2 3-23.3 10.2-37.4 24.2-31.8 31.7-86.4 88.5-91.3 94.9-6.9 9.1-12.9 21-16 31.8-2.1 6.9-2.4 10.1-2.3 23.5 0 16.6.1 16.9 7.2 38 3.3 9.8 3.6 11.4 3.6 23.5l.1 13-4.1 8c-2.3 4.4-4.7 9.9-5.4 12.1-2 6.7-8.6 14.4-35.5 41.5-18.1 18.3-27.2 26.7-31.2 29-7.3 4.2-15.3 12.2-15.3 15.4 0 1.7 3.7 5.9 13.7 15.4 7.6 7.2 14.4 13.1 15.2 13.1 2 0 11.1-9.5 15.3-16.1 5.2-8.1 53.9-56.5 62.9-62.7 4.5-3 21.5-10.7 28.9-13 10.5-3.4 22-2 42 4.8 25.8 8.7 46.4 7.9 68.3-2.9 8.8-4.4 22.4-14.1 27.1-19.4 1.6-1.7 23.2-23.7 48.1-48.7 26.7-26.9 46.8-48 49.2-51.5 16.9-25.5 16.5-53.3-1.1-77.8-2.4-3.4-13.5-15-24.7-25.8s-26.7-26-34.4-33.9c-30-30.5-41.6-37.5-63.5-38.5M503.325 81.125c-2.1-.075-4.725.076-6.825.476-10.7 2.1-13.9 3.1-20 5.7-21.1 9.2-42.7 30.099-54.2 52.199-7.6 14.7-13.5 34.5-14.8 49.7-.8 8.3 0 15.1 1.6 14.6.6-.2 3.8-6.9 7.2-14.8 10.8-25.2 24.7-47.8 40.4-65.6 7.5-8.6 25.7-24.3 35.3-30.4 12.2-7.9 15-9.9 15-11 0-.5-1.575-.8-3.675-.875m190.907 45.468c4.657.064 9.342-.112 13.972.495 3.32.544 6.512 1.668 9.68 2.766 5.092 1.806 9.882 4.545 13.782 8.309 7.74 7.073 12.341 17.242 13.209 27.635.622 6.772-.45 13.628-2.744 20.01-1.713 4.966-4.67 9.421-8.28 13.212-5.775 6.146-12.6 11.157-18.814 16.83-4.244 3.894-8.58 7.879-11.51 12.901-2.002 3.4-2.84 7.322-3.21 11.21-.212 1.137-.144 2.749-1.433 3.247-2.269.756-4.715.601-7.075.7-5.898.015-11.8.103-17.695-.108-1.275-.157-2.838.04-3.794-.988-.906-1.441-.936-3.232-1.03-4.885-.066-5.284.903-10.566 2.61-15.558 1.411-3.887 3.515-7.52 6.063-10.77 5.086-6.288 11.613-11.16 17.552-16.584 3.661-3.393 7.503-6.866 9.67-11.455 1.87-4.269 2.835-9.076 2.036-13.714-.743-4.446-3.52-8.383-7.213-10.902-2.746-1.829-5.804-3.494-9.176-3.631-4.638-.222-9.542-.027-13.696 2.28-2.717 1.578-5.215 3.636-7.058 6.197-2.437 3.757-3.605 8.136-5.269 12.253-.665 1.51-1.19 3.193-2.4 4.364-1.108.208-2.249-.05-3.357-.18-6.234-1.053-12.382-2.559-18.539-3.987-2.787-.72-5.659-1.269-8.278-2.498-.906-.335-1.172-1.317-1.136-2.191.023-3.388 1.085-6.666 2.151-9.847 1.656-4.532 3.594-9.009 6.283-13.033 4.186-6.128 9.642-11.434 16.015-15.257 3.854-2.155 7.915-4.02 12.204-5.12 1.659-.43 3.479-.741 5.093-.955 2.27-.295 4.693-.454 6.884-.557 2.744-.12 5.483-.159 8.279-.184v.001a807 807 0 0 1 6.224-.006m-466.645 2.854c4.657.064 9.342-.112 13.972.495 3.32.543 6.512 1.668 9.68 2.766 5.092 1.805 9.882 4.546 13.782 8.31 7.74 7.073 12.341 17.24 13.208 27.634.623 6.771-.45 13.628-2.743 20.01-1.713 4.966-4.67 9.421-8.28 13.211-5.775 6.146-12.6 11.158-18.814 16.831-4.244 3.894-8.58 7.878-11.51 12.901-2.002 3.399-2.84 7.321-3.21 11.209-.212 1.138-.144 2.75-1.433 3.248-2.269.756-4.715.6-7.075.7-5.898.014-11.8.103-17.695-.109-1.275-.156-2.838.04-3.794-.987-.906-1.442-.936-3.233-1.03-4.885-.066-5.284.903-10.566 2.61-15.558 1.411-3.888 3.515-7.518 6.063-10.768 5.086-6.29 11.613-11.16 17.552-16.585 3.661-3.393 7.503-6.868 9.67-11.457 1.87-4.268 2.835-9.076 2.036-13.714-.743-4.445-3.52-8.383-7.213-10.901-2.746-1.83-5.804-3.495-9.176-3.631-4.638-.223-9.542-.028-13.696 2.28-2.717 1.577-5.216 3.636-7.058 6.197-2.437 3.757-3.605 8.137-5.269 12.254-.665 1.51-1.19 3.192-2.4 4.363-1.108.208-2.249-.048-3.357-.179-6.234-1.053-12.382-2.56-18.539-3.989-2.787-.72-5.659-1.268-8.278-2.497-.906-.335-1.172-1.317-1.136-2.192.023-3.387 1.085-6.664 2.151-9.845 1.656-4.532 3.594-9.01 6.283-13.034 4.186-6.129 9.642-11.434 16.015-15.258 3.854-2.154 7.915-4.02 12.204-5.12 1.659-.43 3.479-.74 5.093-.955 2.27-.294 4.693-.452 6.883-.555 2.745-.12 5.484-.16 8.28-.186v.002a807 807 0 0 1 6.224-.006m458.508 132.61a23 23 0 0 1 3.118.141c4.628.46 9.068 2.839 11.808 6.629 2.715 3.462 3.521 8 3.541 12.297-.016.735-.058 1.67-.127 2.28-.262 2.965-1.44 5.793-3.151 8.21-2.718 3.903-7.243 6.304-11.926 6.824-3.207.356-6.462.127-9.644-.351-5.525-1.378-9.808-6.072-11.515-11.4-2.153-6.306-.459-13.63 3.96-18.558 3.477-3.94 8.73-6.028 13.936-6.071m-466.645 2.854a23 23 0 0 1 3.118.14c4.628.46 9.068 2.84 11.808 6.63 2.715 3.463 3.521 7.999 3.541 12.297-.016.735-.058 1.67-.127 2.279-.262 2.965-1.44 5.794-3.151 8.21-2.719 3.904-7.243 6.304-11.926 6.825-3.207.355-6.462.128-9.644-.35-5.525-1.378-9.808-6.074-11.515-11.401-2.153-6.306-.459-13.63 3.96-18.558 3.477-3.94 8.73-6.029 13.936-6.072M97.18 363.284c-.262.01-.43.316-.58.816-1.3 4.3-1.4 6.9-.1 13.4 2 10.4 6 21.8 11.1 31.3 17.8 33.7 59.8 58.6 102.4 60.8 8.5.5 10.9.3 12.5-.9l2-1.6-2-.6c-1.1-.4-8.7-3.4-16.9-6.7-26-10.4-37.7-16.9-55-30.8-20.3-16.3-34.5-33.1-46.6-55-4.425-8.1-6.038-10.744-6.82-10.716m603.547 40.408a35 35 0 0 0-3.727.108c-5.8.6-5.5 1.8 1.2 4.8 15.5 6.9 34 17 42.3 22.9 11.9 8.5 28 23.7 37 34.9 7 8.7 21.9 31.5 26.4 40.3 2.7 5.3 3.9 6 4.7 2.7 1.8-7.1-2.6-25.5-9.4-39.8-12.4-25.7-36.6-48.2-63-58.5-10.325-4.113-25.856-7.229-35.473-7.408M417.1 454c-.8 0-3.8 2.4-6.7 5.3-2.8 3-6.7 7.8-8.6 10.8-5.2 8.1-53.9 56.5-62.9 62.7-4.5 3-21.5 10.7-28.9 13-10.5 3.4-22 2-42-4.8-25.8-8.7-46.4-7.9-68.3 2.9-8.8 4.4-22.4 14.1-27.1 19.4-1.6 1.7-23.2 23.7-48.1 48.7-26.7 26.9-46.8 48-49.2 51.5-16.9 25.5-16.5 53.3 1.1 77.8 2.4 3.4 13.5 15 24.7 25.8s26.7 26 34.4 33.9c30.8 31.3 42.7 38.3 65.5 38.4 21.1.2 35-6.5 54.8-26.2 31.8-31.7 86.4-88.5 91.3-94.9 6.9-9.1 12.9-21 16-31.8 2.1-6.9 2.4-10.1 2.3-23.5 0-16.6-.1-16.9-7.2-38-3.3-9.8-3.6-11.4-3.6-23.5l-.1-13 4.1-8c2.3-4.4 4.7-9.9 5.4-12.1 2-6.7 8.6-14.4 35.5-41.5 18.1-18.3 27.2-26.7 31.2-29 7.3-4.2 15.3-12.2 15.3-15.4 0-1.7-3.7-5.9-13.7-15.4-7.6-7.2-14.4-13.1-15.2-13.1m69.8 1c-.8 0-7.6 5.9-15.2 13.1-10 9.5-13.7 13.7-13.7 15.4 0 3.2 8 11.2 15.3 15.4 4 2.3 13.1 10.7 31.2 29 26.9 27.1 33.5 34.8 35.5 41.5.7 2.2 3.1 7.7 5.4 12.1l4.1 8-.1 13c0 12.1-.3 13.7-3.6 23.5-7.1 21.1-7.2 21.4-7.2 38-.1 13.4.2 16.6 2.3 23.5 3.1 10.8 9.1 22.7 16 31.8 4.9 6.4 59.5 63.2 91.3 94.9 19.8 19.7 33.7 26.4 54.8 26.2 22.8-.1 34.7-7.1 65.5-38.4 7.7-7.9 23.2-23.1 34.4-33.9s22.3-22.4 24.7-25.8c17.6-24.5 18-52.3 1.1-77.8-2.4-3.5-22.5-24.6-49.2-51.5-24.9-25-46.5-47-48.1-48.7-4.7-5.3-18.3-15-27.1-19.4-21.9-10.8-42.5-11.6-68.3-2.9-20 6.8-31.5 8.2-42 4.8-7.4-2.3-24.4-10-28.9-13-9-6.2-57.7-54.6-62.9-62.7-4.2-6.6-13.3-16.1-15.3-16.1M218.79 606.105c4.657.065 9.341-.113 13.97.494 3.32.544 6.513 1.67 9.682 2.767 5.09 1.806 9.881 4.545 13.781 8.309 7.74 7.074 12.341 17.242 13.209 27.636.622 6.77-.45 13.626-2.744 20.008-1.713 4.966-4.67 9.423-8.28 13.213-5.774 6.146-12.6 11.156-18.814 16.83-4.244 3.893-8.58 7.877-11.509 12.9-2.003 3.399-2.84 7.323-3.211 11.21-.212 1.139-.144 2.75-1.433 3.248-2.269.757-4.715.602-7.075.7-5.898.015-11.8.104-17.695-.108-1.275-.156-2.838.04-3.794-.987-.906-1.442-.935-3.233-1.028-4.886-.066-5.284.901-10.567 2.609-15.56 1.41-3.886 3.514-7.517 6.063-10.767 5.085-6.289 11.612-11.16 17.551-16.585 3.661-3.393 7.503-6.868 9.67-11.457 1.87-4.268 2.835-9.076 2.036-13.714-.743-4.445-3.52-8.382-7.213-10.9-2.746-1.83-5.804-3.494-9.176-3.63-4.637-.223-9.54-.028-13.695 2.28-2.717 1.577-5.216 3.634-7.059 6.195-2.437 3.757-3.605 8.137-5.269 12.255-.665 1.509-1.189 3.19-2.4 4.362-1.108.208-2.248-.048-3.357-.179-6.234-1.053-12.382-2.56-18.539-3.989-2.786-.719-5.659-1.266-8.278-2.496-.905-.334-1.172-1.318-1.136-2.192.023-3.388 1.085-6.664 2.152-9.846 1.655-4.532 3.593-9.008 6.282-13.032 4.186-6.13 9.643-11.436 16.015-15.26 3.854-2.154 7.916-4.018 12.204-5.118 1.66-.43 3.479-.742 5.093-.956 2.27-.295 4.693-.453 6.884-.556 2.744-.12 5.484-.159 8.279-.184a807 807 0 0 1 6.224-.005m484.244 9.841c4.658.065 9.342-.113 13.972.494 3.32.543 6.51 1.67 9.68 2.767 5.09 1.806 9.883 4.545 13.782 8.309 7.74 7.073 12.341 17.242 13.209 27.635.622 6.772-.45 13.628-2.744 20.01-1.713 4.966-4.67 9.422-8.28 13.212-5.774 6.146-12.6 11.156-18.814 16.83-4.243 3.893-8.58 7.879-11.509 12.901-2.003 3.4-2.84 7.322-3.21 11.21-.212 1.137-.145 2.749-1.433 3.247-2.27.756-4.716.601-7.076.7-5.898.015-11.8.103-17.695-.108-1.275-.156-2.838.04-3.794-.987-.906-1.442-.936-3.233-1.03-4.886-.065-5.284.903-10.566 2.61-15.558 1.411-3.887 3.515-7.519 6.064-10.77 5.085-6.288 11.612-11.16 17.551-16.584 3.662-3.393 7.503-6.868 9.67-11.457 1.87-4.268 2.836-9.076 2.036-13.714-.743-4.445-3.52-8.383-7.213-10.901-2.746-1.83-5.803-3.493-9.176-3.63-4.637-.222-9.542-.027-13.696 2.28-2.717 1.578-5.215 3.635-7.058 6.196-2.437 3.757-3.605 8.137-5.269 12.254-.665 1.51-1.189 3.192-2.4 4.363-1.108.208-2.248-.048-3.357-.179-6.234-1.053-12.382-2.559-18.539-3.987-2.786-.72-5.66-1.269-8.279-2.498-.906-.335-1.17-1.317-1.135-2.191.023-3.388 1.085-6.665 2.152-9.847 1.655-4.532 3.594-9.009 6.282-13.033 4.186-6.128 9.643-11.434 16.016-15.257 3.853-2.155 7.915-4.02 12.203-5.12 1.66-.43 3.48-.743 5.093-.957 2.27-.294 4.694-.452 6.884-.555 2.744-.12 5.484-.159 8.28-.184a807 807 0 0 1 6.223-.005m-222.672 11.215c-.216.006-.437.183-.662.54-.3.4-1.5 4.799-2.6 9.799-6.1 25.8-23.7 65.8-37.4 85.1-7 9.9-18.3 23.1-27.2 31.8-6.9 6.7-24.5 21-32.3 26.3-2.9 1.9-5.1 4-4.9 4.6.7 2.3 4.7 1.8 15.4-1.8 21.8-7.3 38.9-19.3 54.6-38.4 11.5-13.9 21.9-32.2 27.5-48.2 6.5-18.6 11-46.5 9.8-60.9-.487-5.687-1.305-8.866-2.238-8.839M210.653 741.568a23 23 0 0 1 3.118.141c4.627.46 9.067 2.84 11.808 6.63 2.714 3.462 3.52 7.998 3.54 12.296-.016.735-.058 1.67-.127 2.28-.262 2.964-1.439 5.793-3.151 8.21-2.718 3.903-7.242 6.304-11.925 6.824-3.208.356-6.463.129-9.645-.35-5.525-1.378-9.808-6.074-11.515-11.4-2.153-6.307-.457-13.63 3.962-18.559 3.477-3.94 8.73-6.028 13.935-6.072m484.244 9.841a23 23 0 0 1 3.119.14c4.627.46 9.068 2.841 11.808 6.63 2.714 3.463 3.52 7.999 3.54 12.297-.016.735-.058 1.67-.127 2.279-.262 2.965-1.439 5.795-3.151 8.212-2.718 3.903-7.242 6.302-11.925 6.823-3.208.355-6.463.128-9.645-.35-5.525-1.378-9.807-6.072-11.515-11.4-2.153-6.306-.459-13.631 3.96-18.559 3.477-3.94 8.73-6.029 13.936-6.072"/></svg>